<svg xmlns="http://www.w3.org/2000/svg" xmlns:xlink="http://www.w3.org/1999/xlink" viewBox="0,0,256,256" width="200px" height="200px"><g fill="none" fill-rule="nonzero" stroke="none" stroke-width="none" stroke-linecap="butt" stroke-linejoin="none" stroke-miterlimit="10" stroke-dasharray="" stroke-dashoffset="0" font-family="none" font-weight="none" font-size="none" text-anchor="none" style="mix-blend-mode: normal"><path transform="scale(4,4)" d="M50.385,50.385c-10.153,10.153 -26.616,10.153 -36.77,0c-10.154,-10.153 -10.153,-26.616 0,-36.77c10.153,-10.154 26.616,-10.153 36.77,0c10.154,10.153 10.153,26.616 0,36.77z" id="strokeMainSVG" fill="#ffff" stroke-width="8" stroke-linejoin="round"></path><g transform="scale(4,4)" fill="#fa5252" stroke="none" stroke-width="1" stroke-linejoin="miter"><path d="M50.385,50.385c-10.153,10.153 -26.616,10.153 -36.77,0c-10.154,-10.153 -10.153,-26.616 0,-36.77c10.153,-10.154 26.616,-10.153 36.77,0c10.154,10.153 10.153,26.616 0,36.77zM43.314,40.485l-7.071,-8.485l7.071,-8.485l-2.828,-2.828l-8.486,7.07l-8.485,-7.071l-2.828,2.828l7.07,8.486l-7.071,8.485l2.828,2.828l8.486,-7.07l8.485,7.071z"></path></g></g></svg>
